<svg width="50" height="32" viewBox="0 0 50 32" fill="none" xmlns="http://www.w3.org/2000/svg">
<g id="AliPay" clip-path="url(#clip0_15_379)">
<g id="AliPay_2">
<rect id="Rectangle" width="50" height="32" rx="3" fill="#499FE3"/>
<g id="Group">
<path id="Vector" d="M15.8268 18.0918V12.0238C15.8268 10.9879 14.9774 10.1582 13.9416 10.1582H5.88521C4.82969 10.1582 4 10.9879 4 12.0238V19.977C4 21.0129 4.84933 21.8426 5.88521 21.8426H13.9219C14.9774 21.8426 15.8071 21.0129 15.8071 19.977V19.8936C15.8071 19.8936 12.7191 18.6318 11.1677 17.8856C10.1319 19.1473 8.78667 19.9132 7.37767 19.9132C6.50871 19.9132 5.78212 19.6039 5.35009 19.1473C5.14389 18.9215 4.99661 18.6515 4.91315 18.3618C4.91315 18.3422 4.89351 18.298 4.89351 18.2784C4.89351 18.2784 4.87387 18.2391 4.87387 18.1753C4.77078 17.6156 4.9377 17.0363 5.35009 16.5404C5.60047 16.2508 6.01286 15.9611 6.65599 15.8138C7.67224 15.5635 9.2678 15.9611 10.7553 16.457C11.0254 15.9611 11.2512 15.4211 11.4181 14.8418H6.818V14.3852H9.19907V13.5555H6.31724V13.0989H9.19416V11.9207C9.19416 11.9207 9.19416 11.7145 9.40035 11.7145H10.559V13.1038H13.4261V13.5604H10.5688V14.3901H12.886C12.6602 15.3033 12.3264 16.128 11.8943 16.8546C12.5964 17.105 13.2395 17.3505 13.7157 17.4978C15.434 18.0525 15.8268 18.0918 15.8268 18.0918ZM6.87691 16.4963C6.58726 16.5159 6.02759 16.6632 5.71829 16.9086C4.80514 17.6941 5.34518 19.1228 7.19112 19.1228C8.26628 19.1228 9.32671 18.4404 10.1711 17.3603C8.96832 16.8105 7.97662 16.3932 6.87691 16.4963Z" fill="white"/>
<path id="Vector_2" d="M22.744 18.878H24.3395L21.3595 12.373H20.9226C20.8588 12.373 20.7753 12.3927 20.7164 12.4369C20.6575 12.4811 20.6133 12.54 20.5691 12.6038L17.5449 18.878H18.6201L19.1601 17.8225H22.2481L22.744 18.878ZM20.736 14.489L22.0419 17.2874H19.3663L20.736 14.489ZM26.4113 18.878H24.963V12.6676C24.963 12.6038 24.9827 12.5203 25.0465 12.4614C25.1103 12.3976 25.1692 12.378 25.2527 12.378H26.431V18.8829H26.4113V18.878ZM27.673 14.3663C27.673 14.3024 27.6927 14.219 27.7565 14.1797C27.8203 14.1159 27.8792 14.0963 27.9627 14.0963H29.1409V18.8829H27.6681V14.3663H27.673ZM30.3634 14.3663C30.3634 14.3024 30.383 14.219 30.4469 14.1601C30.5107 14.0962 30.5696 14.0766 30.653 14.0766H31.8313V14.4497C31.9982 14.3024 32.1848 14.1993 32.4106 14.1159C32.6168 14.0324 32.8868 13.9932 33.1765 13.9932C33.4858 13.9932 33.7558 14.057 34.0258 14.1797C34.2762 14.3024 34.502 14.4694 34.6689 14.6756C34.8555 14.8818 34.9782 15.1125 35.0813 15.4022C35.1844 15.6722 35.2286 15.9618 35.2286 16.2711C35.2286 16.6639 35.1648 17.0173 35.0617 17.3463C34.939 17.6801 34.772 17.9698 34.5658 18.2152C34.3596 18.4656 34.0896 18.6522 33.7803 18.7946C33.471 18.9418 33.1372 19.0007 32.7445 19.0007C32.5579 19.0007 32.391 19.0008 32.2486 18.9811C32.1013 18.9615 31.9786 18.9418 31.8362 18.878V20.8025H30.3634V14.3663ZM31.8362 17.5328C31.8362 17.6556 31.8559 17.7587 31.9 17.8667C31.9393 17.9698 32.0031 18.0532 32.0866 18.1367C32.1701 18.2202 32.2535 18.284 32.3762 18.3233C32.4793 18.3625 32.6021 18.3871 32.7494 18.3871C32.8721 18.3871 32.9997 18.3478 33.1028 18.2643C33.2059 18.1809 33.309 18.0778 33.3925 17.9109C33.476 17.7636 33.5398 17.577 33.5987 17.3708C33.638 17.1646 33.6821 16.9339 33.6821 16.7081C33.6821 16.3988 33.6625 16.1287 33.6183 15.898C33.5791 15.6722 33.5152 15.4611 33.4318 15.3187C33.3483 15.1518 33.2649 15.0487 33.1618 14.9652C33.0587 14.8818 32.9359 14.8425 32.8083 14.8425C32.7248 14.8425 32.6217 14.8621 32.5383 14.8818C32.4548 14.921 32.3713 14.9652 32.2879 15.0045C32.2044 15.0683 32.1406 15.1272 32.062 15.191C31.9982 15.2745 31.9148 15.3383 31.8559 15.4169V17.5279H31.8362V17.5328ZM39.004 14.1355C38.3019 13.9293 37.4084 13.9097 36.2056 14.219C36.2449 14.3417 36.289 14.5528 36.3283 14.6756C38.2528 14.3417 38.6063 14.5921 38.6063 15.4218V15.6722C38.2528 15.6525 37.8404 15.5887 37.5066 15.5887C36.2007 15.5691 35.7245 16.605 35.7245 17.2677C35.7245 18.4067 36.8242 19.4819 38.6014 18.6964V18.8829H40.0938V15.3825C40.1184 14.6952 39.5391 14.2828 39.004 14.1355ZM36.9322 17.2874C36.9322 16.7277 37.3888 16.3153 37.9484 16.2711C38.3019 16.2515 38.5081 16.3104 38.6308 16.3939V18.0287C38.4443 18.1956 38.2184 18.2987 37.9484 18.2987C37.3642 18.2987 36.9322 17.8421 36.9322 17.2874ZM40.5161 13.9932H42.0674L43.5992 16.9339L44.8609 14.1797C44.8805 14.1159 44.9247 14.0766 44.9836 14.0324C45.0474 13.9932 45.1063 13.9932 45.1702 13.9932H45.9999L43.5746 19.315C42.9953 20.7632 41.5667 20.557 41.3163 20.557V19.747C41.5028 19.747 42.1656 19.747 42.4553 19.4377C42.5191 19.3739 42.578 19.2315 42.6222 19.148C42.6664 19.0646 42.7056 18.9811 42.7449 18.8977L42.9118 18.5049L40.5161 13.9932Z" fill="white"/>
<path id="Vector_3" d="M29.2048 12.6669C29.2048 13.0597 28.8513 13.369 28.4193 13.369C27.9824 13.369 27.6338 13.0597 27.6338 12.6669C27.6338 12.2742 27.9873 11.9649 28.4193 11.9649C28.8513 11.96 29.2048 12.2742 29.2048 12.6669Z" fill="white"/>
</g>
</g>
</g>
<defs>
<clipPath id="clip0_15_379">
<rect width="50" height="32" fill="white"/>
</clipPath>
</defs>
</svg>
