<svg width="50" height="32" viewBox="0 0 50 32" fill="none" xmlns="http://www.w3.org/2000/svg">
<g id="Amazon" clip-path="url(#clip0_15_366)">
<g id="Amazon_2">
<rect id="Rectangle" width="50" height="32" rx="3" fill="#333333"/>
<g id="Group">
<g id="Group_2">
<path id="Vector" fill-rule="evenodd" clip-rule="evenodd" d="M29.5985 20.5431C27.3751 22.1602 24.1916 23.0192 21.4628 23.0192C17.6224 23.0192 14.1357 21.6043 11.508 19.2293C11.3059 19.0272 11.5081 18.7745 11.7102 18.9261C14.54 20.5937 18.0772 21.5538 21.665 21.5538C24.0905 21.5538 26.8192 21.0485 29.2953 19.9873C29.649 19.8862 29.9522 20.2905 29.5985 20.5431Z" fill="#FF9201"/>
<path id="Vector_2" fill-rule="evenodd" clip-rule="evenodd" d="M30.5081 19.482C30.2049 19.1283 28.6384 19.3304 27.9309 19.3809C27.7288 19.4315 27.6783 19.2293 27.8804 19.0778C29.1437 18.1682 31.2155 18.4714 31.4681 18.724C31.7208 19.0272 31.4176 21.099 30.2048 22.1097C30.0027 22.2613 29.8511 22.1602 29.9522 21.9581C30.1543 21.3517 30.7607 19.8863 30.5081 19.482Z" fill="#FF9201"/>
</g>
<path id="Vector_3" fill-rule="evenodd" clip-rule="evenodd" d="M27.9814 12.8629V12.0039C27.9814 11.8523 28.0825 11.8018 28.1835 11.8018H32.024C32.125 11.8018 32.2261 11.9028 32.2261 12.0039V12.7619C32.2261 12.8629 32.125 13.0651 31.9229 13.3177L29.9016 16.198C30.6596 16.198 31.4176 16.2991 32.1251 16.6528C32.2767 16.7539 32.3272 16.8549 32.3272 17.0065V17.9161C32.3272 18.0172 32.1756 18.1688 32.024 18.1182C30.8112 17.5119 29.2447 17.4108 27.9309 18.1182C27.7793 18.1688 27.6782 18.0677 27.6782 17.9161V17.0065C27.6782 16.8549 27.6782 16.6528 27.8298 16.4002L30.1543 13.0651H28.133C28.0825 13.0651 27.9814 12.964 27.9814 12.8629Z" fill="white"/>
<path id="Vector_4" fill-rule="evenodd" clip-rule="evenodd" d="M13.8829 18.2188H12.7207C12.6196 18.2188 12.5186 18.1177 12.5186 18.0167V12.0034C12.5186 11.9023 12.6196 11.8013 12.7207 11.8013H13.8324C13.9335 11.8013 14.0345 11.9023 14.0345 12.0034V12.8119C14.3377 12.0539 14.843 11.7002 15.601 11.7002C16.359 11.7002 16.8138 12.0539 17.117 12.8119C17.4202 12.0539 18.0266 11.7002 18.734 11.7002C19.2393 11.7002 19.7446 11.9023 20.0983 12.3571C20.4521 12.8624 20.4016 13.6204 20.4016 14.2268V18.0167C20.4016 18.1177 20.3005 18.2188 20.1994 18.2188H19.0372C18.9361 18.2188 18.835 18.1177 18.835 18.0167V14.8332C18.835 14.5805 18.8351 13.9236 18.7845 13.7215C18.6835 13.3172 18.4308 13.2162 18.0771 13.2162C17.7739 13.2162 17.4707 13.4183 17.3696 13.7215C17.2686 14.0247 17.2686 14.53 17.2686 14.8837V18.0672C17.2686 18.1683 17.1675 18.2693 17.0664 18.2693H15.9042C15.8031 18.2693 15.7021 18.1683 15.7021 18.0672V14.8837C15.7021 14.2268 15.8031 13.2162 14.9946 13.2162C14.1356 13.2162 14.1861 14.1763 14.1861 14.8837V18.0672C14.0851 18.1178 13.984 18.2188 13.8829 18.2188Z" fill="white"/>
<path id="Vector_5" fill-rule="evenodd" clip-rule="evenodd" d="M35.6117 11.6504C37.3804 11.6504 38.2899 13.1664 38.2899 15.036C38.2899 16.8552 37.2288 18.3206 35.6117 18.3206C33.8937 18.3206 32.9841 16.8046 32.9841 14.935C32.9335 13.1158 33.8937 11.6504 35.6117 11.6504ZM35.6117 12.9137C34.7527 12.9137 34.7022 14.0759 34.7022 14.8339C34.7022 15.5919 34.7022 17.1584 35.6117 17.1584C36.5213 17.1584 36.5719 15.8951 36.5719 15.1371C36.5719 14.6318 36.5719 14.0254 36.4203 13.5201C36.2687 13.0653 35.9655 12.9137 35.6117 12.9137Z" fill="white"/>
<path id="Vector_6" fill-rule="evenodd" clip-rule="evenodd" d="M40.5638 18.2195H39.4016C39.3005 18.2195 39.1995 18.1185 39.1995 18.0174V12.0041C39.1995 11.9031 39.3005 11.802 39.4016 11.802H40.5133C40.6143 11.802 40.7154 11.8525 40.7154 11.9536V12.8632C41.0691 12.0547 41.5239 11.6504 42.3324 11.6504C42.8377 11.6504 43.3936 11.8525 43.6968 12.3578C44 12.8632 44 13.6717 44 14.2275V18.0174C44 18.1185 43.8989 18.2195 43.7979 18.2195H42.6356C42.5346 18.2195 42.4335 18.1185 42.4335 18.0174V14.7328C42.4335 14.0759 42.5346 13.1158 41.6755 13.1158C41.3723 13.1158 41.1197 13.3179 41.0186 13.6211C40.867 13.9749 40.8165 14.3791 40.8165 14.7834V18.0174C40.7659 18.1185 40.6649 18.2195 40.5638 18.2195Z" fill="white"/>
<path id="Vector_7" fill-rule="evenodd" clip-rule="evenodd" d="M24.8988 15.339C24.8988 15.7938 24.8988 16.198 24.6967 16.6023C24.4946 16.956 24.1914 17.1581 23.8882 17.1581C23.4334 17.1581 23.1807 16.8044 23.1807 16.2991C23.1807 15.2884 24.0903 15.1368 24.9494 15.1368V15.339H24.8988ZM26.0611 18.2193C25.96 18.2698 25.8589 18.2698 25.8084 18.2698C25.4042 17.9666 25.3536 17.815 25.1515 17.4613C24.4946 18.1182 24.0398 18.3204 23.2313 18.3204C22.2206 18.3204 21.4626 17.714 21.4626 16.5012C21.4626 15.5411 21.968 14.8842 22.7259 14.581C23.3829 14.2778 24.2419 14.2273 24.9494 14.1767V14.0251C24.9494 13.722 24.9494 13.4188 24.7978 13.1661C24.6462 12.964 24.3935 12.8629 24.1408 12.8629C23.686 12.8629 23.2818 13.1156 23.1807 13.5704C23.1807 13.6714 23.0797 13.7725 22.9786 13.7725L21.8164 13.6714C21.7153 13.6714 21.6143 13.5703 21.6648 13.4188C21.9174 12.0544 23.1807 11.5996 24.2925 11.5996C24.8483 11.5996 25.6063 11.7512 26.0611 12.206C26.6169 12.7618 26.5664 13.4693 26.5664 14.2273V16.0464C26.5664 16.6023 26.819 16.8549 27.0212 17.1581C27.0717 17.2592 27.1222 17.4108 27.0212 17.4613C26.718 17.6634 26.3137 18.0172 26.0611 18.2193Z" fill="white"/>
<path id="Vector_8" fill-rule="evenodd" clip-rule="evenodd" d="M9.48668 15.339C9.48668 15.7938 9.4867 16.198 9.28457 16.6023C9.08245 16.956 8.77924 17.1581 8.47604 17.1581C8.02126 17.1581 7.76862 16.8044 7.76862 16.2991C7.76862 15.2884 8.67819 15.1368 9.53723 15.1368V15.339H9.48668ZM10.6489 18.2193C10.5479 18.2698 10.4468 18.2698 10.3457 18.2698C9.94148 17.9666 9.89095 17.815 9.68882 17.4613C9.03191 18.1182 8.57713 18.3204 7.76862 18.3204C6.75798 18.3204 6 17.714 6 16.5012C6 15.5411 6.50532 14.8842 7.2633 14.581C7.92021 14.2778 8.77924 14.2273 9.48668 14.1767V14.0251C9.48668 13.722 9.48669 13.4188 9.33509 13.1661C9.1835 12.964 8.93084 12.8629 8.67818 12.8629C8.2234 12.8629 7.81913 13.1156 7.71807 13.5704C7.71807 13.6714 7.61702 13.7725 7.51596 13.7725L6.35371 13.6714C6.25265 13.6714 6.15159 13.5703 6.20212 13.4188C6.45478 12.0544 7.71807 11.5996 8.82977 11.5996C9.38563 11.5996 10.1436 11.7512 10.5984 12.206C11.1542 12.7618 11.1037 13.4693 11.1037 14.2273V16.0464C11.1037 16.6023 11.3564 16.8549 11.5585 17.1581C11.609 17.2592 11.6596 17.4108 11.5585 17.4613C11.3059 17.6634 10.9016 18.0172 10.6489 18.2193Z" fill="white"/>
</g>
</g>
</g>
<defs>
<clipPath id="clip0_15_366">
<rect width="50" height="32" fill="white"/>
</clipPath>
</defs>
</svg>
