<svg width="32" height="32" viewBox="0 0 32 32" fill="none" xmlns="http://www.w3.org/2000/svg">
<g clip-path="url(#clip0_15_222)">
<path d="M24.7684 17.9376C23.8881 13.5076 28.093 10.9094 28.093 10.9094C28.093 10.9094 26.4547 8.53925 23.7014 7.9295C20.9494 7.31841 19.5721 8.08191 18.1975 8.65455C16.8215 9.22858 16.1349 9.22858 16.1349 9.22858C14.1492 9.22858 12.6977 7.12616 8.91446 8.08331C6.30809 8.74106 3.56433 11.7498 3.0686 15.3409C2.57287 18.9332 3.64264 23.5171 5.70521 27.0696C7.76779 30.625 9.86888 31.9611 11.3602 31.9995C12.8515 32.0366 14.3401 30.9312 16.1349 30.662C17.9311 30.3956 19.0365 31.3129 20.7984 31.8087C22.5533 32.3031 23.1686 31.8444 25.1899 30.1251C27.2168 28.4058 29.0515 23.4745 29.0515 23.4745C29.0515 23.4745 25.6486 22.3704 24.7684 17.9376Z" fill="#1F2937"/>
<path d="M20.871 5.06308C22.821 3.07607 22.1605 0 22.1605 0C22.1605 0 19.4223 0.480646 17.5876 2.38941C15.7544 4.29958 16.0578 7.31658 16.0578 7.31658C16.0578 7.31658 18.921 7.04881 20.871 5.06308Z" fill="#1F2937"/>
</g>
<defs>
<clipPath id="clip0_15_222">
<rect width="32" height="32" fill="white"/>
</clipPath>
</defs>
</svg>
