<svg width="24" height="22" viewBox="0 0 24 22" fill="none" xmlns="http://www.w3.org/2000/svg">
<path d="M15.7986 18.725C15.8377 18.7315 15.8766 18.7347 15.915 18.7347C16.2525 18.7347 16.5504 18.4909 16.6077 18.147L17.3109 13.9283C17.3747 13.5452 17.116 13.1829 16.7329 13.1191C16.3498 13.0551 15.9876 13.314 15.9237 13.6971L15.2206 17.9158C15.1568 18.2989 15.4155 18.6612 15.7986 18.725Z" fill="black"/>
<path d="M7.43937 18.1469C7.49669 18.4909 7.79454 18.7346 8.13208 18.7346C8.17048 18.7346 8.20938 18.7315 8.24852 18.7249C8.63159 18.6611 8.89034 18.2988 8.82649 17.9158L8.12337 13.697C8.05952 13.3139 7.69732 13.0552 7.31421 13.119C6.93115 13.1829 6.6724 13.5451 6.73624 13.9282L7.43937 18.1469Z" fill="black"/>
<path d="M23.2969 7.03124H20.8223L15.4084 0.263898C15.1659 -0.0392424 14.7234 -0.0885082 14.4202 0.154117C14.1169 0.396695 14.0677 0.839148 14.3104 1.14238L19.0215 7.03124H4.97855L9.68967 1.14238C9.93225 0.839148 9.88308 0.396648 9.57989 0.154117C9.27661 -0.0885082 8.83416 -0.0392893 8.59163 0.263898L3.1777 7.03124H0.703125C0.314812 7.03124 0 7.34605 0 7.73437V10.5469C0 10.9352 0.314812 11.25 0.703125 11.25H1.57903L4.24584 20.5838C4.33205 20.8857 4.60795 21.0937 4.92188 21.0937H19.0781C19.392 21.0937 19.668 20.8857 19.7542 20.5838L22.421 11.25H23.2969C23.6852 11.25 24 10.9352 24 10.5469V7.73437C24 7.34605 23.6852 7.03124 23.2969 7.03124ZM18.5478 19.6875H5.45222L3.04153 11.25H20.9585L18.5478 19.6875ZM22.5938 9.84374C20.1851 9.84374 3.68813 9.84374 1.40625 9.84374V8.43749H22.5938V9.84374Z" fill="black"/>
<path d="M12 18.7344C12.3883 18.7344 12.7031 18.4196 12.7031 18.0312V13.8125C12.7031 13.4242 12.3883 13.1094 12 13.1094C11.6117 13.1094 11.2969 13.4242 11.2969 13.8125V18.0312C11.2969 18.4196 11.6117 18.7344 12 18.7344Z" fill="black"/>
</svg>
