<svg width="50" height="32" viewBox="0 0 50 32" fill="none" xmlns="http://www.w3.org/2000/svg">
<g id="Bitcoin" clip-path="url(#clip0_15_390)">
<g id="Bitcoin_2">
<rect id="Rectangle" width="50" height="32" rx="3" fill="#F7931A"/>
<g id="Group">
<g id="Group_2">
<path id="Vector" d="M14.3311 22.5314C14.6312 22.5314 14.8906 22.5852 15.1085 22.6908C15.3274 22.7974 15.5081 22.9411 15.653 23.1218C15.796 23.3034 15.9024 23.5156 15.9711 23.7589C16.0394 24.0028 16.0736 24.2651 16.0736 24.5458C16.0736 24.977 15.9946 25.3844 15.8351 25.7684C15.6756 26.153 15.4592 26.4866 15.1839 26.7711C14.9088 27.0553 14.584 27.2794 14.2095 27.4449C13.8355 27.6106 13.429 27.6934 12.9924 27.6934C12.936 27.6934 12.8367 27.6918 12.6965 27.6889C12.5563 27.686 12.3952 27.6715 12.2148 27.6471C12.0332 27.6218 11.8412 27.5843 11.6384 27.5341C11.4357 27.4848 11.2433 27.4158 11.062 27.3281L12.6828 20.5179L14.1344 20.293L13.5541 22.7096C13.6783 22.6537 13.8035 22.6103 13.9284 22.5787C14.0534 22.5476 14.1876 22.5314 14.3311 22.5314ZM13.1134 26.5418C13.332 26.5418 13.538 26.488 13.7315 26.3824C13.9256 26.2767 14.0931 26.1339 14.2334 25.9561C14.3737 25.7775 14.4848 25.5764 14.5657 25.3517C14.6467 25.1269 14.6877 24.8924 14.6877 24.6485C14.6877 24.3488 14.6376 24.115 14.5378 23.946C14.4379 23.7777 14.2532 23.6931 13.985 23.6931C13.8971 23.6931 13.7838 23.7098 13.6434 23.7398C13.5025 23.7716 13.3764 23.8377 13.2634 23.937L12.6455 26.5035C12.6828 26.5101 12.7157 26.5163 12.7438 26.5222C12.7714 26.5286 12.8018 26.5331 12.8321 26.5362C12.8641 26.5398 12.9008 26.5417 12.9451 26.5417C12.9894 26.5417 13.0448 26.5418 13.1134 26.5418Z" fill="white"/>
<path id="Vector_2" d="M17.5789 27.5635H16.1924L17.3633 22.6363H18.7593L17.5789 27.5635ZM18.2536 22.036C18.0601 22.036 17.8846 21.9784 17.7289 21.8629C17.572 21.7482 17.4942 21.5716 17.4942 21.3335C17.4942 21.2026 17.5208 21.0797 17.5736 20.9638C17.6271 20.8482 17.6971 20.7486 17.7848 20.6639C17.8724 20.5799 17.9738 20.5128 18.089 20.4623C18.2049 20.4126 18.3282 20.3877 18.4596 20.3877C18.653 20.3877 18.8276 20.4453 18.9838 20.5607C19.1395 20.6768 19.2178 20.8534 19.2178 21.0902C19.2178 21.2216 19.1913 21.3449 19.1381 21.4605C19.0853 21.5762 19.0153 21.6758 18.9276 21.7605C18.8407 21.8445 18.7384 21.9114 18.6234 21.9615C18.5074 22.012 18.3845 22.036 18.2536 22.036Z" fill="white"/>
<path id="Vector_3" d="M19.9745 21.4086L21.4267 21.1836L21.0701 22.6359H22.6254L22.3445 23.7785H20.7986L20.3868 25.502C20.3489 25.6457 20.3274 25.7798 20.3214 25.9045C20.3145 26.0298 20.3304 26.1374 20.3679 26.2279C20.4051 26.3187 20.4721 26.3887 20.5692 26.4382C20.6659 26.4885 20.8044 26.5139 20.986 26.5139C21.1356 26.5139 21.2813 26.4996 21.4222 26.4714C21.5623 26.4437 21.7042 26.405 21.8478 26.3545L21.9513 27.4228C21.7639 27.4915 21.561 27.5506 21.3424 27.6004C21.1234 27.6508 20.8642 27.6751 20.5646 27.6751C20.1339 27.6751 19.7999 27.6111 19.562 27.4838C19.3244 27.3555 19.1565 27.1802 19.0559 26.9584C18.9568 26.7373 18.9125 26.4825 18.9249 26.1954C18.9377 25.9076 18.9811 25.6052 19.0559 25.2866L19.9745 21.4086Z" fill="white"/>
<path id="Vector_4" d="M22.5645 25.5959C22.5645 25.1715 22.6332 24.7713 22.7705 24.3966C22.9075 24.0216 23.105 23.6937 23.3612 23.4123C23.6165 23.1322 23.9275 22.9104 24.2936 22.7475C24.658 22.5856 25.0659 22.5039 25.5155 22.5039C25.7969 22.5039 26.0483 22.5305 26.2695 22.5838C26.4915 22.6376 26.6925 22.7071 26.8742 22.7944L26.396 23.8816C26.2711 23.831 26.1414 23.7863 26.0074 23.7458C25.8732 23.7046 25.7094 23.6847 25.5156 23.6847C25.0528 23.6847 24.687 23.8442 24.4147 24.1621C24.1435 24.4803 24.0068 24.9087 24.0068 25.446C24.0068 25.7644 24.0756 26.0219 24.2134 26.2189C24.3506 26.4158 24.604 26.5138 24.972 26.5138C25.1536 26.5138 25.3288 26.4948 25.4967 26.4578C25.6658 26.4204 25.8151 26.3732 25.9466 26.3174L26.0501 27.432C25.8748 27.5 25.6814 27.5614 25.4693 27.6152C25.2567 27.6672 25.0036 27.6941 24.7101 27.6941C24.3227 27.6941 23.9948 27.6374 23.7266 27.5258C23.4582 27.4125 23.2365 27.262 23.0618 27.0713C22.8862 26.8803 22.7602 26.6571 22.6822 26.401C22.6042 26.1452 22.5645 25.8764 22.5645 25.5959Z" fill="white"/>
<path id="Vector_5" d="M28.7236 27.6941C28.3927 27.6941 28.1053 27.6437 27.8614 27.5438C27.6183 27.444 27.4169 27.304 27.2576 27.1224C27.0981 26.9417 26.9788 26.7276 26.897 26.4808C26.8152 26.2342 26.7759 25.9611 26.7759 25.6619C26.7759 25.2866 26.8361 24.9113 26.9579 24.5371C27.0792 24.1621 27.259 23.8252 27.4971 23.5257C27.7333 23.2258 28.0246 22.9806 28.3677 22.7894C28.7104 22.5994 29.1046 22.5039 29.5474 22.5039C29.8723 22.5039 30.1583 22.5545 30.4055 22.6543C30.6515 22.7539 30.8541 22.8951 31.0144 23.0758C31.1728 23.2574 31.2932 23.4706 31.3742 23.7176C31.4557 23.9638 31.496 24.2376 31.496 24.537C31.496 24.9112 31.4365 25.2864 31.3186 25.6618C31.2005 26.0353 31.0252 26.373 30.7939 26.6732C30.563 26.9727 30.2743 27.2178 29.9275 27.4082C29.5812 27.5986 29.1796 27.6941 28.7236 27.6941ZM29.4166 23.6848C29.2111 23.6848 29.0293 23.7445 28.8738 23.8623C28.7176 23.9816 28.5864 24.1315 28.4807 24.3123C28.3738 24.4939 28.2946 24.6919 28.2411 24.9072C28.188 25.1229 28.1619 25.3268 28.1619 25.5206C28.1619 25.8332 28.2124 26.0767 28.3115 26.2519C28.412 26.4263 28.5926 26.5139 28.855 26.5139C29.0613 26.5139 29.2421 26.4547 29.3986 26.3356C29.5538 26.2172 29.6851 26.0672 29.7916 25.8861C29.8978 25.7054 29.9777 25.5068 30.0313 25.2912C30.0837 25.0762 30.1104 24.8711 30.1104 24.6777C30.1104 24.3658 30.0602 24.1218 29.9601 23.9468C29.8602 23.7725 29.6788 23.6848 29.4166 23.6848Z" fill="white"/>
<path id="Vector_6" d="M33.0029 27.5635H31.6152L32.7862 22.6363H34.1829L33.0029 27.5635ZM33.6766 22.036C33.4832 22.036 33.3078 21.9784 33.1524 21.8629C32.9962 21.7482 32.9178 21.5716 32.9178 21.3335C32.9178 21.2026 32.9447 21.0797 32.9976 20.9638C33.0505 20.8482 33.1209 20.7486 33.2086 20.6639C33.2957 20.5799 33.398 20.5128 33.513 20.4623C33.6282 20.4126 33.7515 20.3877 33.8825 20.3877C34.0763 20.3877 34.2515 20.4453 34.4074 20.5607C34.5634 20.6768 34.6422 20.8534 34.6422 21.0902C34.6422 21.2216 34.6142 21.3449 34.5618 21.4605C34.5094 21.5762 34.439 21.6758 34.3516 21.7605C34.2637 21.8445 34.1626 21.9114 34.0474 21.9615C33.9313 22.012 33.8082 22.036 33.6766 22.036Z" fill="white"/>
<path id="Vector_7" d="M35.1861 22.8601C35.2914 22.8293 35.4089 22.7923 35.5367 22.7521C35.665 22.7118 35.8083 22.6743 35.9684 22.6406C36.1268 22.6057 36.3055 22.5775 36.502 22.5557C36.6985 22.5333 36.9224 22.5225 37.1713 22.5225C37.9025 22.5225 38.4066 22.7354 38.6849 23.16C38.963 23.5847 39.0111 24.1658 38.8306 24.9024L38.1928 27.5628H36.7972L37.4153 24.9583C37.453 24.7957 37.4826 24.6385 37.5045 24.4849C37.5266 24.3327 37.5253 24.1985 37.4995 24.0824C37.4749 23.9676 37.4168 23.8737 37.3267 23.801C37.2352 23.7294 37.097 23.6934 36.9095 23.6934C36.7287 23.6934 36.5448 23.7128 36.3571 23.7503L35.4482 27.5626H34.052L35.1861 22.8601Z" fill="white"/>
</g>
<g id="Bitcoin_3">
<g id="Group_3">
<path id="Vector_8" d="M31.3017 12.6724C30.434 16.1526 26.9087 18.2706 23.4277 17.4028C19.9481 16.5351 17.8298 13.01 18.698 9.53004C19.5654 6.04944 23.0907 3.93123 26.5707 4.79889C30.0515 5.66656 32.1695 9.19203 31.3017 12.6724Z" fill="white"/>
<path id="Vector_9" d="M27.8645 10.1754C27.9938 9.31098 27.3356 8.84629 26.4355 8.5363L26.7275 7.36534L26.0146 7.1877L25.7304 8.32781C25.543 8.28111 25.3505 8.23706 25.1592 8.19341L25.4455 7.0458L24.7331 6.86816L24.4409 8.03872C24.2858 8.0034 24.1335 7.96848 23.9857 7.93173L23.9865 7.92808L23.0034 7.68264L22.8138 8.44393C22.8138 8.44393 23.3427 8.56513 23.3315 8.57264C23.6203 8.64471 23.6724 8.83574 23.6637 8.98718L23.3311 10.3212C23.351 10.3262 23.3768 10.3335 23.4052 10.3449C23.3815 10.339 23.3561 10.3325 23.3299 10.3262L22.8637 12.1949C22.8284 12.2826 22.7389 12.4142 22.5371 12.3643C22.5442 12.3746 22.0189 12.2349 22.0189 12.2349L21.665 13.0508L22.5927 13.2821C22.7653 13.3253 22.9344 13.3706 23.1009 13.4132L22.8059 14.5976L23.5179 14.7752L23.8101 13.6034C24.0046 13.6562 24.1934 13.7049 24.3782 13.7508L24.087 14.9171L24.7999 15.0947L25.0949 13.9126C26.3105 14.1426 27.2245 14.0498 27.6093 12.9505C27.9193 12.0654 27.5938 11.5549 26.9543 11.2219C27.42 11.1145 27.7709 10.8082 27.8645 10.1754ZM26.2357 12.4591C26.0154 13.3442 24.525 12.8657 24.0418 12.7457L24.4332 11.1766C24.9164 11.2972 26.466 11.536 26.2357 12.4591ZM26.4562 10.1626C26.2552 10.9677 25.0147 10.5587 24.6123 10.4584L24.9672 9.0353C25.3696 9.13558 26.6656 9.32276 26.4562 10.1626Z" fill="#F7931A"/>
</g>
</g>
</g>
</g>
</g>
<defs>
<clipPath id="clip0_15_390">
<rect width="50" height="32" fill="white"/>
</clipPath>
</defs>
</svg>
