<svg width="50" height="32" viewBox="0 0 50 32" fill="none" xmlns="http://www.w3.org/2000/svg">
<g id="BitPay" clip-path="url(#clip0_15_386)">
<g id="BitPay_2">
<rect id="Rectangle" width="50" height="32" rx="3" fill="#2E408B"/>
<path id="Vector" d="M43 12.6814H41.1474L40.0526 17.2464L39.8842 17.8804C39.7579 17.9227 39.6737 17.9227 39.5474 17.965C39.3789 18.0072 39.2105 18.0072 39 18.0072C38.7474 18.0072 38.5789 17.965 38.4105 17.8804C38.2842 17.7959 38.1579 17.7114 38.1158 17.5845C38.0737 17.4577 38.0316 17.2887 38.0316 17.1196C38.0316 16.9505 38.0737 16.7392 38.1158 16.5701L38.7053 14.2031L39.0842 12.6392H37.1895L36.3053 16.3165C36.1789 16.7814 36.1368 17.2041 36.1368 17.5423C36.1368 17.965 36.1789 18.3031 36.3053 18.599C36.4316 18.8949 36.6842 19.1485 37.0211 19.3175C37.3579 19.4866 37.8211 19.5712 38.3684 19.5712C38.7895 19.5712 39.1684 19.5289 39.4632 19.4443H39.5053C39.4211 19.8248 39.2526 20.1206 38.9579 20.3742C38.6632 20.6279 38.2842 20.7547 37.7789 20.7547C37.5684 20.7547 37.3158 20.7547 37.1474 20.7124L36.7684 22.2341C37.0211 22.2763 37.3158 22.2763 37.6105 22.2763C38.2 22.2763 38.7053 22.1918 39.0842 22.065C39.5053 21.9382 39.8842 21.7268 40.2211 21.4732C40.5158 21.2196 40.8105 20.8815 41.0211 20.4588C41.2316 20.0361 41.4 19.5712 41.5263 19.0639L42.7895 13.6113L43 12.6814ZM35.2105 16.6124C35.0842 17.0773 35.0421 17.5845 35.0842 18.0495C35.1263 18.5567 35.3368 19.233 35.5053 19.6134H33.6947C33.4842 19.233 33.4842 19.0639 33.4421 18.9371C33.1895 19.1485 32.9368 19.2753 32.6421 19.4021C32.3474 19.5289 32.0526 19.6134 31.6737 19.6134C31.2526 19.6134 30.8737 19.5289 30.5789 19.4021C30.2842 19.2753 30.0316 19.0639 29.8211 18.8103C29.6105 18.5567 29.4842 18.2608 29.4 17.9227C29.3158 17.5845 29.2737 17.2464 29.2737 16.8237C29.2737 16.232 29.4 15.6825 29.5684 15.2175C29.7789 14.7103 30.0737 14.2454 30.4526 13.9072C30.8316 13.5268 31.6737 12.6814 33.1474 12.6814H36.0526L35.2105 16.6124ZM33.8632 14.2876C32.9789 14.2876 32.8105 14.2876 32.4737 14.4567C32.2211 14.5835 32.0105 14.7948 31.8 15.0485C31.6316 15.2598 31.4632 15.5557 31.3368 15.8515C31.2105 16.1474 31.1684 16.4856 31.1684 16.8237C31.1684 17.2464 31.2526 17.5423 31.3789 17.7959C31.5053 18.0495 31.7579 18.134 32.1368 18.134C32.3474 18.134 32.5158 18.0918 32.6842 18.0072C32.8526 17.9227 33.0211 17.7959 33.1895 17.6268C33.1895 17.4155 33.2316 17.2041 33.2737 16.9505C33.3158 16.6969 33.3579 16.4856 33.4 16.3165L33.8632 14.2876ZM28.8526 15.4289C28.8526 16.0629 28.7263 16.6124 28.5579 17.1196C28.3474 17.6268 28.0526 18.0918 27.7158 18.4299C27.3368 18.8103 26.9158 19.1062 26.4526 19.3175C25.9474 19.5289 25.4 19.6557 24.8526 19.6557C24.5579 19.6557 24.2632 19.6134 23.9684 19.5712L23.3789 21.8536H21.5263L23.6737 12.7237H26.1579C26.6211 12.7237 27.0421 12.8082 27.3368 12.935C27.6737 13.0618 27.9684 13.2732 28.1789 13.5268C28.3895 13.7804 28.5579 14.0763 28.6842 14.4144C28.8105 14.7103 28.8526 15.0485 28.8526 15.4289ZM24.2632 18.0072C24.3895 18.0495 24.6 18.0495 24.8105 18.0495C25.1474 18.0495 25.4421 18.0072 25.7368 17.8804C25.9895 17.7536 26.2421 17.5845 26.4526 17.3732C26.6632 17.1619 26.7895 16.866 26.9158 16.5701C27.0421 16.2742 27.0842 15.8938 27.0842 15.5134C27.0842 15.133 27 14.8371 26.8316 14.5835C26.6632 14.3299 26.3684 14.2031 25.9895 14.2031H25.2316L24.2632 18.0072ZM20.3895 18.0072C20.1368 18.0072 19.9684 17.965 19.8 17.8804C19.6737 17.7959 19.5474 17.7114 19.5053 17.5845C19.4632 17.4577 19.4211 17.2887 19.4211 17.1196C19.4211 16.9505 19.4632 16.7392 19.5053 16.5701L20.0947 14.2031H22.2L22.5789 12.6392H20.4316L20.9368 10.6526L18.9579 10.9907L17.6947 16.3588C17.5684 16.8237 17.5263 17.2464 17.5263 17.5845C17.5263 18.0072 17.5684 18.3454 17.6947 18.6413C17.8211 18.9371 18.0737 19.1907 18.4105 19.3598C18.7474 19.5289 19.2105 19.6134 19.7579 19.6134C20.1789 19.6134 20.5579 19.5712 20.8526 19.4866C20.8947 19.4866 20.9368 19.4866 20.9789 19.4443L21.3579 17.8382C21.2316 17.8804 21.1053 17.9227 20.9789 17.9227C20.7684 18.0072 20.6 18.0072 20.3895 18.0072ZM15.6316 12.6814L13.9895 19.6134H15.8421L17.4842 12.6814H15.6316ZM17.6526 11.8783L17.9474 10.6948H16.0947L15.8 11.8783H17.6526ZM11.5053 12.6814C11.9263 12.6814 12.2632 12.766 12.5579 12.8928C12.8526 13.0196 13.1053 13.2309 13.3158 13.4845C13.5263 13.7381 13.6526 14.034 13.7368 14.3722C13.8211 14.7103 13.8632 15.0485 13.8632 15.4289C13.8632 16.0206 13.7368 16.5701 13.5263 17.0773C13.3158 17.5845 13.0211 18.0495 12.6421 18.4299C12.2632 18.8526 11.8421 19.1062 11.3368 19.3598C10.8316 19.5712 10.2842 19.698 9.73684 19.698H9.27368C9.06316 19.698 8.85263 19.698 8.6 19.6557C8.34737 19.6134 8.09474 19.5712 7.8 19.4866C7.50526 19.4021 7.25263 19.3175 7 19.1907L9.18947 10.0185L11.1263 9.72266L10.3263 12.9773C10.4947 12.8928 10.6632 12.8505 10.8316 12.8082C11.1263 12.6814 11.2947 12.6814 11.5053 12.6814ZM9.82105 18.0918C10.1158 18.0918 10.4105 18.0072 10.6632 17.8804C10.9158 17.7536 11.1684 17.5423 11.3368 17.2887C11.5474 17.0351 11.6737 16.7814 11.8 16.4856C11.9263 16.1897 11.9684 15.8515 11.9684 15.5134C11.9684 15.0907 11.8842 14.7948 11.7579 14.5412C11.6316 14.3299 11.3368 14.2031 10.9579 14.2031C10.8316 14.2031 10.7053 14.2031 10.5368 14.2454C10.3263 14.2876 10.2 14.3722 10.0316 14.499L9.18947 17.965C9.44211 18.0072 9.52632 18.0072 9.56842 18.0072C9.65263 18.0918 9.73684 18.0918 9.82105 18.0918Z" fill="white"/>
</g>
</g>
<defs>
<clipPath id="clip0_15_386">
<rect width="50" height="32" fill="white"/>
</clipPath>
</defs>
</svg>
