<svg width="50" height="32" viewBox="0 0 50 32" fill="none" xmlns="http://www.w3.org/2000/svg">
<g id="Discover" clip-path="url(#clip0_15_297)">
<g id="Discover_2">
<rect id="Rectangle" width="50" height="32" rx="3" fill="#F8F8F8"/>
<g id="Mask Group">
<mask id="mask0_15_297" style="mask-type:alpha" maskUnits="userSpaceOnUse" x="0" y="0" width="50" height="32">
<rect id="Rectangle_2" width="50" height="32" rx="3" fill="#F9F9F9"/>
</mask>
<g mask="url(#mask0_15_297)">
<path id="Vector" d="M14.4531 32H48.3594C49.2578 32 50 31.2578 50 30.3594V18.875C46.7578 20.9453 34.4922 28.0547 14.4531 32Z" fill="#F58220"/>
</g>
</g>
<g id="Group">
<path id="Vector_2" d="M7.72173 12.9717H6V18.9848H7.71261C8.62327 18.9848 9.28087 18.77 9.85808 18.2906C10.544 17.723 10.9497 16.8674 10.9497 15.9824C10.9499 14.208 9.62393 12.9717 7.72173 12.9717ZM9.09195 17.4889C8.72335 17.8217 8.24477 17.9668 7.48691 17.9668H7.17218V13.9906H7.48691C8.24477 13.9906 8.70462 14.1261 9.09195 14.4768C9.49763 14.838 9.74158 15.3978 9.74158 15.9736C9.74158 16.551 9.49763 17.1279 9.09195 17.4889Z" fill="#231F20"/>
<path id="Vector_3" d="M12.6625 12.9717H11.4895V18.9848H12.6625V12.9717Z" fill="#231F20"/>
<path id="Vector_4" d="M15.5306 15.2799C14.8268 15.0196 14.6201 14.8478 14.6201 14.5229C14.6201 14.1441 14.9883 13.8564 15.4938 13.8564C15.8453 13.8564 16.134 14.0008 16.4396 14.3433L17.0533 13.5398C16.549 13.0986 15.9456 12.873 15.2864 12.873C14.2224 12.873 13.4109 13.6119 13.4109 14.596C13.4109 15.4245 13.7887 15.8486 14.8903 16.245C15.3496 16.4069 15.5832 16.5147 15.7012 16.5873C15.9355 16.7403 16.0529 16.9571 16.0529 17.2095C16.0529 17.6967 15.6655 18.0576 15.1422 18.0576C14.5828 18.0576 14.1321 17.7779 13.8622 17.2557L13.1045 17.9854C13.6449 18.7786 14.2939 19.1302 15.1864 19.1302C16.4052 19.1302 17.2603 18.3198 17.2603 17.1558C17.2601 16.2004 16.8649 15.7678 15.5306 15.2799Z" fill="#231F20"/>
<path id="Vector_5" d="M17.6301 15.9828C17.6301 17.7503 19.0181 19.1208 20.8041 19.1208C21.3091 19.1208 21.7415 19.0215 22.2747 18.7704V17.3897C21.8057 17.8591 21.3904 18.0483 20.8587 18.0483C19.6774 18.0483 18.8391 17.1918 18.8391 15.9741C18.8391 14.8197 19.704 13.9088 20.8043 13.9088C21.3637 13.9088 21.7872 14.1085 22.2749 14.5854V13.2053C21.76 12.9441 21.3367 12.8359 20.832 12.8359C19.0546 12.8362 17.6301 14.2346 17.6301 15.9828Z" fill="#231F20"/>
<path id="Vector_6" d="M31.5744 17.0107L29.9708 12.9717H28.6895L31.2415 19.1392H31.8726L34.4703 12.9717H33.1988L31.5744 17.0107Z" fill="#231F20"/>
<path id="Vector_7" d="M35.0007 18.9858H38.3271V17.968H36.1727V16.3449H38.2477V15.3262H36.1727V13.9916H38.3271V12.9727H35.0007V18.9858Z" fill="#231F20"/>
<path id="Vector_8" d="M42.971 14.7469C42.971 13.6211 42.1955 12.9717 40.8429 12.9717H39.1038V18.9848H40.2753V16.5693H40.4283L42.0517 18.9849H43.4941L41.6012 16.4515C42.4845 16.2719 42.971 15.6677 42.971 14.7469ZM40.6179 15.7401H40.2754V13.9188H40.6365C41.367 13.9188 41.7641 14.2249 41.7641 14.8101C41.7641 15.4147 41.3671 15.7401 40.6179 15.7401Z" fill="#231F20"/>
<g id="MarkingBase 1">
<path id="Vector_9" d="M25.8566 19.1985C27.6232 19.1985 29.0554 17.7663 29.0554 15.9996C29.0554 14.233 27.6232 12.8008 25.8566 12.8008C24.0899 12.8008 22.6577 14.233 22.6577 15.9996C22.6577 17.7663 24.0899 19.1985 25.8566 19.1985Z" fill="url(#paint0_linear_15_297)"/>
<path id="Vector_10" opacity="0.65" d="M25.8566 19.1985C27.6232 19.1985 29.0554 17.7663 29.0554 15.9996C29.0554 14.233 27.6232 12.8008 25.8566 12.8008C24.0899 12.8008 22.6577 14.233 22.6577 15.9996C22.6577 17.7663 24.0899 19.1985 25.8566 19.1985Z" fill="url(#paint1_linear_15_297)"/>
</g>
<g id="Registered 1">
<path id="Vector_11" d="M43.72 13.1982C43.72 13.0928 43.6473 13.0352 43.5198 13.0352H43.3501V13.5637H43.4762V13.3586L43.6241 13.5637H43.7781L43.6042 13.3458C43.6789 13.3258 43.72 13.2716 43.72 13.1982ZM43.4976 13.2705H43.4763V13.1323H43.499C43.5613 13.1323 43.5939 13.1547 43.5939 13.2003C43.5939 13.2468 43.5609 13.2705 43.4976 13.2705Z" fill="#231F20"/>
<path id="Vector_12" d="M43.5453 12.8379C43.2887 12.8379 43.085 13.0427 43.085 13.2986C43.085 13.5545 43.291 13.7595 43.5453 13.7595C43.7953 13.7595 44.0001 13.5522 44.0001 13.2986C44.0001 13.0461 43.7952 12.8379 43.5453 12.8379ZM43.5433 13.6771C43.3413 13.6771 43.1761 13.509 43.1761 13.2993C43.1761 13.0888 43.3392 12.9209 43.5433 12.9209C43.7443 12.9209 43.9081 13.0927 43.9081 13.2993C43.9081 13.5072 43.7445 13.6771 43.5433 13.6771Z" fill="#231F20"/>
</g>
</g>
</g>
</g>
<defs>
<linearGradient id="paint0_linear_15_297" x1="27.4939" y1="18.5633" x2="25.2791" y2="15.0955" gradientUnits="userSpaceOnUse">
<stop stop-color="#F89F21"/>
<stop offset="0.2502" stop-color="#F79A23"/>
<stop offset="0.5331" stop-color="#F78E22"/>
<stop offset="0.6196" stop-color="#F68721"/>
<stop offset="0.7232" stop-color="#F48220"/>
<stop offset="1" stop-color="#F27623"/>
</linearGradient>
<linearGradient id="paint1_linear_15_297" x1="27.1441" y1="18.5161" x2="23.907" y2="12.1891" gradientUnits="userSpaceOnUse">
<stop stop-color="#F68721" stop-opacity="0"/>
<stop offset="0.3587" stop-color="#E27027" stop-opacity="0.2704"/>
<stop offset="0.703" stop-color="#D4612C" stop-opacity="0.5299"/>
<stop offset="0.9816" stop-color="#D15D2D" stop-opacity="0.74"/>
</linearGradient>
<clipPath id="clip0_15_297">
<rect width="50" height="32" fill="white"/>
</clipPath>
</defs>
</svg>
