<svg width="50" height="32" viewBox="0 0 50 32" fill="none" xmlns="http://www.w3.org/2000/svg">
<g id="eBay" clip-path="url(#clip0_15_270)">
<g id="eBay_2">
<rect id="Rectangle" width="50" height="32" rx="3" fill="black"/>
<g id="Group">
<path id="e" d="M10.9137 11.709C8.23345 11.709 6 12.8461 6 16.2766C6 18.9944 7.50183 20.7059 10.9829 20.7059C15.0803 20.7059 15.3429 18.0068 15.3429 18.0068H13.3576C13.3576 18.0068 12.9319 19.4602 10.8618 19.4602C9.17575 19.4602 7.96309 18.3212 7.96309 16.7248H15.5506V15.723C15.5506 14.1436 14.5479 11.709 10.9137 11.709ZM10.8445 12.9893C12.4494 12.9893 13.5436 13.9725 13.5436 15.4462H8.007C8.007 13.8817 9.43513 12.9893 10.8445 12.9893Z" fill="#E53238"/>
<path id="b" d="M15.5493 8.38672V18.9827C15.5493 19.5842 15.5063 20.4287 15.5063 20.4287H17.4C17.4 20.4287 17.4679 19.8222 17.4679 19.2678C17.4679 19.2678 18.4035 20.7315 20.9474 20.7315C23.6262 20.7315 25.4459 18.8717 25.4459 16.2071C25.4459 13.7283 23.7745 11.7346 20.9517 11.7346C18.3084 11.7346 17.4871 13.162 17.4871 13.162V8.38672H15.5493ZM20.463 13.0452C22.2821 13.0452 23.4389 14.3953 23.4389 16.2071C23.4389 18.1499 22.1028 19.4209 20.4759 19.4209C18.5344 19.4209 17.4871 17.9049 17.4871 16.2244C17.4871 14.6585 18.4269 13.0452 20.463 13.0452Z" fill="#0064D2"/>
<path id="a" d="M30.1517 11.709C26.1195 11.709 25.8609 13.9168 25.8609 14.2696H27.8679C27.8679 14.2696 27.9731 12.9807 30.0133 12.9807C31.3391 12.9807 32.3664 13.5875 32.3664 14.7541V15.1693H30.0133C26.8895 15.1693 25.238 16.0832 25.238 17.9376C25.238 19.7626 26.7639 20.7556 28.826 20.7556C31.6362 20.7556 32.5415 19.2028 32.5415 19.2028C32.5415 19.8204 32.5891 20.4291 32.5891 20.4291H34.3734C34.3734 20.4291 34.3041 19.6746 34.3041 19.192V15.0201C34.3041 12.2847 32.0977 11.709 30.1517 11.709ZM32.3664 16.4151V16.9687C32.3664 17.6908 31.9208 19.4861 29.2975 19.4861C27.8609 19.4861 27.245 18.7692 27.245 17.9376C27.245 16.4248 29.3192 16.4151 32.3664 16.4151Z" fill="#F5AF02"/>
<path id="y" d="M33.2234 12.0547H35.4813L38.7216 18.5465L41.9546 12.0547H43.9999L38.1111 23.6122H35.9657L37.665 20.3904L33.2234 12.0547Z" fill="#86B817"/>
</g>
</g>
</g>
<defs>
<clipPath id="clip0_15_270">
<rect width="50" height="32" fill="white"/>
</clipPath>
</defs>
</svg>
