<svg width="50" height="32" viewBox="0 0 50 32" fill="none" xmlns="http://www.w3.org/2000/svg">
<g id="Google Pay" clip-path="url(#clip0_15_278)">
<g id="Google Pay_2">
<rect id="Rectangle" width="50" height="32" rx="3" fill="#5485EC"/>
<g id="Group">
<path id="Vector" d="M23.9713 16.827V21.2502H22.5681V10.3269H26.2897C26.7339 10.3176 27.1756 10.3964 27.5892 10.5587C28.0028 10.721 28.3802 10.9636 28.6996 11.2726C29.0222 11.5627 29.2789 11.9186 29.4525 12.3162C29.6262 12.7138 29.7127 13.144 29.7062 13.5778C29.7155 14.014 29.6303 14.447 29.4565 14.8472C29.2828 15.2473 29.0246 15.6052 28.6996 15.8962C28.0488 16.5168 27.2455 16.8268 26.2897 16.8262H23.9713V16.827ZM23.9713 11.6717V15.4848H26.3246C26.5825 15.4925 26.8393 15.4462 27.0784 15.3489C27.3174 15.2517 27.5336 15.1056 27.713 14.9201C27.8914 14.7466 28.0333 14.539 28.1301 14.3098C28.227 14.0805 28.2769 13.8341 28.2769 13.5853C28.2769 13.3364 28.227 13.09 28.1301 12.8607C28.0333 12.6315 27.8914 12.4239 27.713 12.2505C27.5358 12.061 27.3204 11.9113 27.0811 11.8114C26.8417 11.7115 26.5838 11.6636 26.3246 11.6709H23.9713V11.6717Z" fill="white"/>
<path id="Vector_2" d="M32.9399 13.5322C33.9771 13.5322 34.7958 13.8094 35.396 14.3637C35.9962 14.918 36.296 15.678 36.2955 16.6437V21.2499H34.9533V20.2128H34.8922C34.3112 21.0669 33.5384 21.494 32.5739 21.494C31.7505 21.494 31.0617 21.2499 30.5074 20.7619C30.2414 20.5379 30.0287 20.2573 29.8849 19.9407C29.741 19.624 29.6696 19.2793 29.6759 18.9316C29.6759 18.1582 29.9682 17.5432 30.5527 17.0865C31.1372 16.6298 31.9176 16.4008 32.8937 16.3997C33.727 16.3997 34.4132 16.5522 34.9524 16.8573V16.5365C34.954 16.2995 34.9028 16.065 34.8025 15.8502C34.7023 15.6354 34.5555 15.4456 34.3728 15.2945C34.0017 14.9597 33.5181 14.7771 33.0184 14.7829C32.2345 14.7829 31.6143 15.1135 31.1576 15.7748L29.9217 14.9965C30.6015 14.0203 31.6076 13.5322 32.9399 13.5322ZM31.1245 18.9621C31.1235 19.1407 31.1653 19.3169 31.2462 19.4761C31.3272 19.6353 31.445 19.7728 31.5899 19.8772C31.9002 20.1213 32.2854 20.2507 32.6802 20.2433C33.2723 20.2423 33.8399 20.0066 34.2586 19.5879C34.7234 19.1503 34.9559 18.637 34.9559 18.0478C34.5183 17.6992 33.9082 17.5249 33.1256 17.5249C32.5556 17.5249 32.0803 17.6623 31.6997 17.9371C31.3153 18.216 31.1245 18.5551 31.1245 18.9621Z" fill="white"/>
<path id="Vector_3" d="M44 13.7773L39.3144 24.5455H37.8659L39.6047 20.7778L36.5237 13.7773H38.0489L40.2758 19.1462H40.3063L42.4721 13.7773H44Z" fill="white"/>
<g id="Group_2">
<path id="Vector_4" d="M18.3009 15.8736C18.3014 15.446 18.2653 15.0191 18.1928 14.5977H12.2749V17.0145H15.6644C15.5951 17.4005 15.4483 17.7685 15.2329 18.0962C15.0175 18.424 14.7379 18.7047 14.4111 18.9215V20.4903H16.434C17.6185 19.3982 18.3009 17.7832 18.3009 15.8736Z" fill="white"/>
<path id="Vector_5" d="M12.275 22.0059C13.9684 22.0059 15.3943 21.4498 16.4341 20.4911L14.4112 18.9223C13.8482 19.304 13.123 19.5219 12.275 19.5219C10.6382 19.5219 9.24892 18.4185 8.75213 16.9316H6.66821V18.5484C7.19051 19.5877 7.9914 20.4614 8.98147 21.072C9.97154 21.6825 11.1118 22.0058 12.275 22.0059Z" fill="white"/>
<path id="Vector_6" d="M8.75212 16.9319C8.48948 16.1527 8.48948 15.309 8.75212 14.5298V12.9131H6.6682C6.22883 13.7874 6 14.7524 6 15.7309C6 16.7094 6.22883 17.6743 6.6682 18.5486L8.75212 16.9319Z" fill="white"/>
<path id="Vector_7" d="M12.275 11.9395C13.1699 11.9248 14.0346 12.263 14.6823 12.8807L16.4733 11.0897C15.3376 10.0229 13.833 9.43729 12.275 9.45549C11.1118 9.45554 9.97154 9.77889 8.98147 10.3894C7.9914 11 7.19051 11.8737 6.66821 12.913L8.75213 14.5297C9.24892 13.0429 10.6382 11.9395 12.275 11.9395Z" fill="white"/>
</g>
</g>
</g>
</g>
<defs>
<clipPath id="clip0_15_278">
<rect width="50" height="32" fill="white"/>
</clipPath>
</defs>
</svg>
