<svg width="50" height="32" viewBox="0 0 50 32" fill="none" xmlns="http://www.w3.org/2000/svg">
<g id="MasterCard" clip-path="url(#clip0_15_257)">
<g id="MasterCard_2">
<rect id="Rectangle" width="50" height="32" rx="3" fill="#0F3560"/>
<g id="Group">
<g id="Group_2">
<path id="Vector" d="M29.3632 23.8654H20.614V8.1416H29.3632V23.8654Z" fill="#FF5F00"/>
<g id="Group_3">
<path id="Vector_2" d="M21.1745 16.002C21.1745 12.8123 22.6679 9.97105 24.9936 8.14004C23.2929 6.80111 21.1465 6.00195 18.8139 6.00195C13.2916 6.00195 8.81519 10.479 8.81519 16.002C8.81519 21.5249 13.2916 26.002 18.8139 26.002C21.1465 26.002 23.2929 25.2028 24.9936 23.8639C22.6679 22.0329 21.1745 19.1916 21.1745 16.002Z" fill="#EB001B"/>
</g>
<g id="Group_4">
<path id="Vector_3" d="M41.1632 16.002C41.1632 21.5249 36.6867 26.002 31.1644 26.002C28.8318 26.002 26.6854 25.2028 24.9841 23.8639C27.3104 22.0329 28.8038 19.1916 28.8038 16.002C28.8038 12.8123 27.3104 9.97105 24.9841 8.14004C26.6854 6.80111 28.8318 6.00195 31.1644 6.00195C36.6867 6.00195 41.1632 10.479 41.1632 16.002Z" fill="#F79E1B"/>
</g>
</g>
<g id="Group_5">
<path id="Vector_4" d="M16.3391 16.0651C16.3391 15.6283 16.6253 15.2694 17.0931 15.2694C17.54 15.2694 17.8417 15.6128 17.8417 16.0651C17.8417 16.5174 17.54 16.8607 17.0931 16.8607C16.6253 16.8607 16.3391 16.5019 16.3391 16.0651ZM18.3511 16.0651V14.8225H17.8107V15.1242C17.6394 14.9005 17.3793 14.76 17.0258 14.76C16.329 14.76 15.7827 15.3063 15.7827 16.0651C15.7827 16.8244 16.329 17.3701 17.0258 17.3701C17.3793 17.3701 17.6394 17.2297 17.8107 17.0059V17.3076H18.3511V16.0651ZM36.6109 16.0651C36.6109 15.6283 36.8971 15.2694 37.3649 15.2694C37.8124 15.2694 38.1135 15.6128 38.1135 16.0651C38.1135 16.5174 37.8124 16.8607 37.3649 16.8607C36.8971 16.8607 36.6109 16.5019 36.6109 16.0651ZM38.6235 16.0651V13.8246H38.0825V15.1242C37.9112 14.9005 37.6511 14.76 37.2976 14.76C36.6008 14.76 36.0545 15.3063 36.0545 16.0651C36.0545 16.8244 36.6008 17.3701 37.2976 17.3701C37.6511 17.3701 37.9112 17.2297 38.0825 17.0059V17.3076H38.6235V16.0651ZM25.0584 15.2439C25.4065 15.2439 25.6303 15.4623 25.6874 15.8467H24.3978C24.4555 15.4878 24.6733 15.2439 25.0584 15.2439ZM25.0691 14.76C24.3407 14.76 23.8313 15.2903 23.8313 16.0651C23.8313 16.8554 24.3615 17.3701 25.1054 17.3701C25.4797 17.3701 25.8225 17.2767 26.1242 17.022L25.8594 16.6215C25.6511 16.7875 25.3857 16.8815 25.1363 16.8815C24.7882 16.8815 24.471 16.7203 24.3931 16.2728H26.2384C26.2438 16.2055 26.2491 16.1377 26.2491 16.0651C26.2438 15.2903 25.7653 14.76 25.0691 14.76ZM31.5937 16.0651C31.5937 15.6283 31.8799 15.2694 32.3476 15.2694C32.7946 15.2694 33.0963 15.6128 33.0963 16.0651C33.0963 16.5174 32.7946 16.8607 32.3476 16.8607C31.8799 16.8607 31.5937 16.5019 31.5937 16.0651ZM33.6057 16.0651V14.8225H33.0653V15.1242C32.8933 14.9005 32.6339 14.76 32.2804 14.76C31.5835 14.76 31.0373 15.3063 31.0373 16.0651C31.0373 16.8244 31.5835 17.3701 32.2804 17.3701C32.6339 17.3701 32.8933 17.2297 33.0653 17.0059V17.3076H33.6057V16.0651ZM28.542 16.0651C28.542 16.8191 29.0669 17.3701 29.8679 17.3701C30.2422 17.3701 30.4916 17.2868 30.7617 17.0738L30.5023 16.637C30.2993 16.7828 30.0863 16.8607 29.8518 16.8607C29.4204 16.8554 29.1032 16.5435 29.1032 16.0651C29.1032 15.5866 29.4204 15.2748 29.8518 15.2694C30.0863 15.2694 30.2993 15.3474 30.5023 15.4932L30.7617 15.0564C30.4916 14.8434 30.2422 14.76 29.8679 14.76C29.0669 14.76 28.542 15.3111 28.542 16.0651ZM35.5088 14.76C35.1969 14.76 34.994 14.9058 34.8536 15.1242V14.8225H34.318V17.3076H34.8589V15.9145C34.8589 15.5033 35.0357 15.2748 35.3892 15.2748C35.4987 15.2748 35.6129 15.2903 35.7272 15.3373L35.8938 14.8279C35.7742 14.7809 35.6183 14.76 35.5088 14.76ZM21.0236 15.0201C20.7636 14.8487 20.4053 14.76 20.0102 14.76C19.3806 14.76 18.9753 15.0618 18.9753 15.5557C18.9753 15.9609 19.2771 16.2109 19.8329 16.2888L20.0882 16.3251C20.3845 16.3668 20.5244 16.4447 20.5244 16.5852C20.5244 16.7774 20.3268 16.8869 19.9578 16.8869C19.5835 16.8869 19.3134 16.7673 19.1313 16.6268L18.8766 17.0476C19.1729 17.266 19.5472 17.3701 19.9525 17.3701C20.6702 17.3701 21.0861 17.0321 21.0861 16.559C21.0861 16.1222 20.7588 15.8937 20.2179 15.8157L19.9632 15.7788C19.7293 15.7479 19.5419 15.7015 19.5419 15.5349C19.5419 15.3528 19.7186 15.2439 20.015 15.2439C20.3322 15.2439 20.6392 15.3635 20.7898 15.4569L21.0236 15.0201ZM27.9957 14.76C27.6839 14.76 27.481 14.9058 27.3411 15.1242V14.8225H26.8056V17.3076H27.3459V15.9145C27.3459 15.5033 27.5226 15.2748 27.8761 15.2748C27.9856 15.2748 28.0999 15.2903 28.2141 15.3373L28.3808 14.8279C28.2612 14.7809 28.1052 14.76 27.9957 14.76ZM23.3844 14.8225H22.5007V14.0685H21.9544V14.8225H21.4503V15.3165H21.9544V16.4501C21.9544 17.0267 22.1781 17.3701 22.8173 17.3701C23.0517 17.3701 23.3219 17.2975 23.4933 17.1779L23.3374 16.7149C23.1761 16.8084 22.9994 16.8554 22.8589 16.8554C22.5887 16.8554 22.5007 16.6887 22.5007 16.4394V15.3165H23.3844V14.8225ZM15.3048 17.3076V15.7479C15.3048 15.1605 14.9305 14.7654 14.3271 14.76C14.0099 14.7547 13.6826 14.8535 13.4535 15.2022C13.2821 14.9267 13.0119 14.76 12.6323 14.76C12.3668 14.76 12.1074 14.838 11.9045 15.129V14.8225H11.3635V17.3076H11.9092V15.93C11.9092 15.4986 12.1485 15.2694 12.518 15.2694C12.8768 15.2694 13.0583 15.5033 13.0583 15.9246V17.3076H13.6046V15.93C13.6046 15.4986 13.854 15.2694 14.2128 15.2694C14.5818 15.2694 14.7585 15.5033 14.7585 15.9246V17.3076H15.3048Z" fill="white"/>
</g>
</g>
</g>
</g>
<defs>
<clipPath id="clip0_15_257">
<rect width="50" height="32" fill="white"/>
</clipPath>
</defs>
</svg>
