<svg width="50" height="32" viewBox="0 0 50 32" fill="none" xmlns="http://www.w3.org/2000/svg">
<g id="monobank" clip-path="url(#clip0_15_290)">
<g id="monobank_2">
<rect id="Rectangle" width="50" height="32" rx="3" fill="black"/>
<g id="Group">
<path id="Vector" fill-rule="evenodd" clip-rule="evenodd" d="M41.3986 18.1838H42.1271V20.5008H42.1682L43.1155 19.3878L43.7873 19.3861L42.7482 20.6026L44 22.124H43.161L42.1376 20.7079H42.1271V22.124H41.3986V18.1838ZM6.76902 18.36V20.5206C6.76902 21.2567 6.98694 21.659 7.59754 21.659C8.18189 21.659 8.41557 21.1712 8.41557 20.5632V18.36H9.10407V20.6977C9.10407 21.6482 8.4815 22.1867 7.57595 22.1867C6.53913 22.1867 6 21.6858 6 20.6601V18.36H6.76902ZM10.7133 19.7519C10.9598 19.4943 11.3029 19.3706 11.6471 19.3706C12.2854 19.3706 12.6233 19.7137 12.6233 20.3908V22.1217H11.8989V20.4722C11.8989 20.0956 11.73 19.8482 11.3528 19.8482C10.998 19.8482 10.7194 20.0795 10.7194 20.5206V22.1217H9.99415V19.4345H10.7133V19.7519ZM13.4757 22.1217H14.2013V19.4345H13.4757V22.1217ZM13.4045 18.6287C13.4045 18.4248 13.5787 18.2148 13.8252 18.2148C14.0761 18.2148 14.2716 18.4193 14.2716 18.6287C14.2716 18.8595 14.1035 19.08 13.8357 19.08C13.579 19.08 13.4045 18.8595 13.4045 18.6287ZM15.8064 22.1217L14.6453 19.4231H15.414C15.6491 20.0413 15.893 20.6227 16.1218 21.3696H16.1328C16.3794 20.6227 16.6113 20.0413 16.8619 19.4231H17.5425L16.3131 22.1217H15.8064ZM19.7014 20.4562C19.7297 20.0466 19.582 19.768 19.2229 19.768C18.8066 19.768 18.6199 20.0956 18.6278 20.4562H19.7014ZM18.6158 20.843C18.5995 21.3486 18.9595 21.724 19.4122 21.724C19.6812 21.724 19.9636 21.6327 20.1445 21.5087L20.3516 21.8854C19.9805 22.1001 19.5925 22.1867 19.2818 22.1867C18.4577 22.1867 17.8415 21.6111 17.8415 20.7246C17.8415 19.8966 18.4519 19.3706 19.2325 19.3706C20.0838 19.3706 20.4389 20.0419 20.3852 20.843H18.6158ZM21.8091 19.9074H21.8194L21.967 19.6979C22.0481 19.5792 22.212 19.3706 22.4358 19.3706C22.5995 19.3706 22.7748 19.4567 22.9277 19.6119L22.654 20.1064C22.5341 20.0466 22.4574 20.0151 22.3109 20.0151C22.0597 20.0151 21.8144 20.214 21.8144 20.794V22.1217H21.0865V19.4345H21.8091V19.9074ZM24.8645 19.9395C24.7011 19.8213 24.5319 19.768 24.4 19.768C24.2367 19.768 24.0727 19.859 24.0727 20.0419C24.0727 20.2569 24.3353 20.3809 24.6404 20.6003C25.029 20.8865 25.1425 21.1657 25.1425 21.4116C25.1425 21.7891 24.7218 22.1867 24.1226 22.1867C23.7457 22.1867 23.4677 22.0572 23.2118 21.8801L23.4408 21.5087C23.6036 21.6386 23.8379 21.7666 24.0339 21.7666C24.2428 21.7666 24.4275 21.659 24.4275 21.4335C24.4275 21.1808 24.1433 21.0414 23.8822 20.8585C23.5709 20.6493 23.3588 20.4448 23.3588 20.1122C23.3588 19.6869 23.7725 19.3706 24.307 19.3706C24.6083 19.3706 24.9021 19.4453 25.0999 19.618L24.8645 19.9395ZM26.9317 20.6922C26.5776 20.8051 26.3976 21.0038 26.3976 21.3098C26.3976 21.5467 26.5504 21.708 26.7263 21.708C27.0143 21.708 27.3912 21.353 27.3372 20.5632L26.9317 20.6922ZM27.1622 21.8641C26.9653 22.0254 26.7144 22.1867 26.4641 22.1867C26.0381 22.1867 25.6822 21.8641 25.6822 21.3696C25.6822 20.8585 26.0597 20.574 26.6931 20.3908L27.3372 20.2026C27.2993 19.9558 27.0747 19.8003 26.8413 19.8003C26.5291 19.8003 26.3106 19.9132 26.1198 20.0746L25.8844 19.7359C26.2237 19.4619 26.5557 19.3706 26.9317 19.3706C27.435 19.3706 28.052 19.5308 28.052 20.3701V21.4659C28.052 21.6812 28.0785 21.9344 28.1666 22.1217H27.3973C27.3413 22.0301 27.3259 21.8749 27.3259 21.7296L27.1622 21.8641ZM28.8651 22.1217H29.5915V18.1719H28.8651V22.1217ZM36.0193 20.6922C35.664 20.8051 35.484 21.0038 35.484 21.3098C35.484 21.5467 35.6359 21.708 35.8116 21.708C36.0995 21.708 36.4767 21.353 36.4236 20.5632L36.0193 20.6922ZM36.2468 21.8641C36.0514 22.0254 35.7999 22.1867 35.5487 22.1867C35.1237 22.1867 34.768 21.8641 34.768 21.3696C34.768 20.8585 35.145 20.574 35.7789 20.3908L36.4236 20.2026C36.3837 19.9558 36.1611 19.8003 35.9248 19.8003C35.6147 19.8003 35.3958 19.9132 35.2051 20.0746L34.9702 19.7359C35.3086 19.4619 35.6421 19.3706 36.0193 19.3706C36.5202 19.3706 37.1363 19.5308 37.1363 20.3701V21.4659C37.1363 21.6812 37.1635 21.9344 37.2504 22.1217H36.4823C36.4283 22.0301 36.4102 21.8749 36.4102 21.7296L36.2468 21.8641ZM38.6703 19.7519C38.9162 19.4943 39.2605 19.3706 39.6038 19.3706C40.2422 19.3706 40.5803 19.7137 40.5803 20.3908V22.1217H39.8547V20.4722C39.8547 20.0956 39.6855 19.8482 39.3089 19.8482C38.9539 19.8482 38.6758 20.0795 38.6758 20.5206V22.1217H37.9503V19.4345H38.6703V19.7519ZM32.239 21.6692H32.6317C33.0576 21.6692 33.3805 21.4492 33.3805 21.0306C33.3805 20.5895 33.0474 20.4016 32.6273 20.4016H32.239V21.6692ZM32.239 19.9395H32.4802C32.9228 19.9395 33.2233 19.6603 33.2233 19.3102C33.2233 18.9776 32.9709 18.8329 32.6384 18.8329H32.2387V19.9395H32.239ZM31.4703 22.1319V18.3703H32.8513C33.4946 18.3703 33.9483 18.6602 33.9483 19.1708C33.9483 19.7723 33.4517 20.0203 33.1845 20.0897V20.1005C33.6594 20.1224 34.1881 20.4442 34.1881 21.0192C34.1881 21.6692 33.6364 22.1319 32.7373 22.1319H31.4703Z" fill="white"/>
<path id="Vector_2" fill-rule="evenodd" clip-rule="evenodd" d="M44 16.2236L44 16.5154L6 16.5154L6 16.2236L44 16.2236Z" fill="white"/>
<path id="Vector_3" fill-rule="evenodd" clip-rule="evenodd" d="M13.4298 14.4836V12.04C13.4298 11.3468 13.0587 11.0178 12.4356 11.0178C11.9174 11.0178 11.4693 11.3258 11.2733 11.6339C11.1473 11.2488 10.8322 11.0178 10.3351 11.0178C9.81695 11.0178 9.36884 11.3398 9.22881 11.5429V11.1018H8.3396V14.4836H9.22881V12.208C9.36184 12.019 9.6209 11.8089 9.92897 11.8089C10.2931 11.8089 10.4331 12.033 10.4331 12.3481V14.4836H11.3293V12.201C11.4553 12.019 11.7144 11.8089 12.0295 11.8089C12.3936 11.8089 12.5336 12.033 12.5336 12.3481V14.4836H13.4298ZM15.8734 14.5676C14.7601 14.5676 14.088 13.7554 14.088 12.7892C14.088 11.83 14.7601 11.0178 15.8734 11.0178C16.9936 11.0178 17.6658 11.83 17.6658 12.7892C17.6658 13.7554 16.9936 14.5676 15.8734 14.5676ZM15.8734 13.7764C16.4265 13.7764 16.7416 13.3213 16.7416 12.7892C16.7416 12.2641 16.4265 11.8089 15.8734 11.8089C15.3202 11.8089 15.0122 12.2641 15.0122 12.7892C15.0122 13.3213 15.3202 13.7764 15.8734 13.7764ZM21.4957 14.4836V12.096C21.4957 11.4379 21.1386 11.0178 20.3964 11.0178C19.8433 11.0178 19.4302 11.2838 19.2132 11.5429V11.1018H18.324V14.4836H19.2132V12.208C19.3602 12.005 19.6333 11.8089 19.9833 11.8089C20.3614 11.8089 20.6065 11.97 20.6065 12.4391V14.4836H21.4957ZM23.9463 14.5676C22.833 14.5676 22.1609 13.7554 22.1609 12.7892C22.1609 11.83 22.833 11.0178 23.9463 11.0178C25.0665 11.0178 25.7387 11.83 25.7387 12.7892C25.7387 13.7554 25.0665 14.5676 23.9463 14.5676ZM23.9463 13.7764C24.4994 13.7764 24.8145 13.3213 24.8145 12.7892C24.8145 12.2641 24.4994 11.8089 23.9463 11.8089C23.3931 11.8089 23.0851 12.2641 23.0851 12.7892C23.0851 13.3213 23.3931 13.7764 23.9463 13.7764ZM27.2861 13.3983C27.4331 13.6154 27.7622 13.7764 28.0492 13.7764C28.5674 13.7764 28.9105 13.3843 28.9105 12.7962C28.9105 12.208 28.5674 11.8089 28.0492 11.8089C27.7622 11.8089 27.4331 11.977 27.2861 12.201V13.3983ZM27.2861 14.4836H26.3969V9.81348H27.2861V11.5359C27.5521 11.1928 27.9302 11.0178 28.3293 11.0178C29.1905 11.0178 29.8277 11.6899 29.8277 12.7962C29.8277 13.9234 29.1835 14.5676 28.3293 14.5676C27.9232 14.5676 27.5521 14.3856 27.2861 14.0495V14.4836ZM33.4195 14.4836H32.5303V14.1335C32.2992 14.4066 31.9002 14.5676 31.4591 14.5676C30.9199 14.5676 30.2828 14.2035 30.2828 13.4473C30.2828 12.6561 30.9199 12.3551 31.4591 12.3551C31.9072 12.3551 32.3063 12.5021 32.5303 12.7682V12.3131C32.5303 11.97 32.2362 11.7459 31.7881 11.7459C31.424 11.7459 31.088 11.879 30.8009 12.145L30.4648 11.5499C30.8779 11.1858 31.41 11.0178 31.9422 11.0178C32.7123 11.0178 33.4195 11.3258 33.4195 12.2991V14.4836ZM31.8161 13.9655C32.1032 13.9655 32.3833 13.8674 32.5303 13.6714V13.2513C32.3833 13.0552 32.1032 12.9572 31.8161 12.9572C31.4661 12.9572 31.179 13.1393 31.179 13.4683C31.179 13.7834 31.4661 13.9655 31.8161 13.9655ZM37.4735 14.4836V12.096C37.4735 11.4379 37.1164 11.0178 36.3742 11.0178C35.8211 11.0178 35.408 11.2838 35.1909 11.5429V11.1018H34.3017V14.4836H35.1909V12.208C35.338 12.005 35.611 11.8089 35.9611 11.8089C36.3392 11.8089 36.5843 11.97 36.5843 12.4391V14.4836H37.4735ZM41.6605 14.4836L40.2811 12.6351L41.6184 11.1018H40.5262L39.2449 12.6071V9.81348H38.3557V14.4836H39.2449V13.6154L39.651 13.1813L40.5472 14.4836H41.6605Z" fill="white"/>
</g>
</g>
</g>
<defs>
<clipPath id="clip0_15_290">
<rect width="50" height="32" fill="white"/>
</clipPath>
</defs>
</svg>
