<svg width="50" height="32" viewBox="0 0 50 32" fill="none" xmlns="http://www.w3.org/2000/svg">
<g id="Western Union" clip-path="url(#clip0_15_317)">
<g id="Western Union_2">
<rect id="Rectangle" width="50" height="32" rx="3" fill="#0D0D0D"/>
<g id="Group">
<g id="g316">
<path id="path318" d="M4.5625 13.9028H5.57747L5.81961 15.7047H5.82731L6.09388 13.9028H7.26739L7.53302 15.7047H7.54072L7.78343 13.9028H8.79839L8.18036 16.7666H6.95011L6.68486 14.9114H6.67716L6.41135 16.7666H5.18148L4.5625 13.9028Z" fill="#FDDF12"/>
</g>
<g id="g320">
<path id="path322" d="M9.46069 13.9028H11.639V14.6495H10.5478V14.954H11.5556V15.7002H10.5478V16.0214H11.6745V16.7666H9.46069V13.9028Z" fill="#FDDF12"/>
</g>
<g id="g324">
<g id="g326">
<g id="g332">
<path id="path334" d="M13.9635 14.7165C13.9592 14.538 13.8602 14.4783 13.7133 14.4783C13.5312 14.4783 13.4512 14.5575 13.4512 14.6455C13.4512 14.7477 13.5187 14.7916 13.6376 14.8275C13.8558 14.8915 14.2564 14.9701 14.5456 15.0935C14.9074 15.2438 15.0656 15.5023 15.0656 15.8468C15.0656 16.549 14.4947 16.8428 13.6847 16.8428C12.9947 16.8428 12.3604 16.6286 12.3604 15.8827H13.4475C13.4475 15.9627 13.4636 16.0416 13.507 16.1015C13.5504 16.1562 13.622 16.1919 13.7289 16.1919C13.8953 16.1919 14.0031 16.0848 14.0031 15.9582C14.0031 15.8515 13.9197 15.7961 13.8121 15.7639L13.0068 15.5263C12.567 15.3952 12.4126 15.1288 12.4126 14.7604C12.4126 14.1651 12.8925 13.8279 13.7289 13.8279C14.4427 13.8279 14.979 14.0507 14.979 14.7165H13.9635Z" fill="#FDDF12"/>
</g>
</g>
</g>
<g id="g336">
<path id="path338" d="M16.3862 14.6735H15.6807V13.903H18.2268V14.6735H17.5207V16.7666H16.3862V14.6735Z" fill="#FDDF12"/>
</g>
<g id="g340">
<path id="path342" d="M18.9641 13.9028H21.1421V14.6495H20.0518V14.954H21.059V15.7002H20.0518V16.0214H21.1783V16.7666H18.9641V13.9028Z" fill="#FDDF12"/>
</g>
<g id="g344">
<g id="g346">
<g id="g352">
<path id="path354" d="M21.9873 13.9028H23.6812C24.296 13.9028 24.6571 14.0899 24.6571 14.6298C24.6571 14.9589 24.5179 15.2078 24.0888 15.3117V15.3194C24.367 15.3434 24.5179 15.4657 24.5731 15.6848C24.6364 15.9303 24.6293 16.3347 24.7596 16.7666H23.6494C23.5824 16.5526 23.5465 16.1918 23.5063 15.9464C23.4834 15.8029 23.4114 15.7484 23.229 15.7484H23.0977V16.7666H21.9873V13.9028ZM23.1929 15.097C23.4114 15.097 23.57 15.0216 23.57 14.808C23.57 14.5978 23.4229 14.5539 23.2003 14.5539H23.0977V15.097H23.1929Z" fill="#FDDF12"/>
</g>
</g>
</g>
<g id="g356">
<path id="path358" d="M25.5186 13.9028H26.8784L27.4844 15.6369H27.4931V13.9028H28.4136V16.7666H27.0537L26.4462 15.0216H26.4381V16.7666H25.5186V13.9028Z" fill="#FDDF12"/>
</g>
<g id="g360">
<g id="g362">
<g id="g368">
<path id="path370" d="M15.0415 19.2363C15.0415 19.927 14.5456 20.2725 13.6813 20.2725C12.8164 20.2725 12.321 19.927 12.321 19.2363V17.3331H13.4551V19.1889C13.4551 19.4149 13.5624 19.5034 13.6813 19.5034C13.8002 19.5034 13.9075 19.4149 13.9075 19.1889V17.3331H15.0415V19.2363Z" fill="#FDDF12"/>
</g>
</g>
</g>
<g id="g372">
<path id="path374" d="M15.9507 17.3329H17.3111L17.9175 19.0666H17.9256V17.3329H18.8455V20.1973H17.4853L16.8791 18.4512H16.87V20.1973H15.9507V17.3329Z" fill="#FDDF12"/>
</g>
<path id="path376" d="M19.7747 17.3329H20.9078V20.1973H19.7747V17.3329Z" fill="#FDDF12"/>
<g id="g378">
<g id="g380">
<g id="g386">
<path id="path388" d="M23.2124 17.2578C24.2003 17.2578 24.6923 17.8723 24.6923 18.7649C24.6923 19.6572 24.2003 20.2725 23.2124 20.2725C22.2251 20.2725 21.7336 19.6572 21.7336 18.7649C21.7336 17.8723 22.2251 17.2578 23.2124 17.2578ZM23.2124 19.5267C23.3881 19.5267 23.5177 19.4271 23.5177 18.7649C23.5177 18.1182 23.3956 18.0032 23.2124 18.0032C23.0306 18.0032 22.9073 18.1182 22.9073 18.7649C22.9073 19.4271 23.0392 19.5267 23.2124 19.5267Z" fill="#FDDF12"/>
</g>
</g>
</g>
<g id="g390">
<path id="path392" d="M25.5186 17.3329H26.8784L27.4844 19.0666H27.4931V17.3329H28.4136V20.1973H27.0537L26.4462 18.4512H26.4381V20.1973H25.5186V17.3329Z" fill="#FDDF12"/>
</g>
<g id="g394">
<g id="g396">
<g id="g402">
<path id="path404" d="M39.0916 13.8619H38.6082L38.067 17.8817H38.0495L37.4569 13.8619H34.8382L34.244 17.8817H34.2269L33.6872 13.8619H31.4229L32.8032 20.25H35.5472L36.1393 16.1116H36.1573L36.7492 20.25H39.4932L39.6307 19.6111C39.2798 19.2384 39.0916 18.7389 39.0916 18.1083V13.8619Z" fill="#FDDF12"/>
</g>
<g id="g406">
<path id="path408" d="M39.0916 13.8621V18.1085C39.0916 18.7391 39.2798 19.2386 39.6307 19.6113L40.872 13.8621H39.0916Z" fill="white"/>
</g>
<g id="g410">
<path id="path412" d="M42.6304 13.8622V18.003C42.6304 18.507 42.3913 18.7033 42.1261 18.7033C41.8608 18.7033 41.6217 18.507 41.6217 18.003V13.8622H41.0818L39.8066 19.7703C40.324 20.2007 41.1073 20.4199 42.1261 20.4199C44.0546 20.4199 45.1608 19.649 45.1608 18.1086V13.8622H42.6304Z" fill="#FDDF12"/>
</g>
</g>
</g>
<g id="g414">
<path id="path416" d="M29.7628 13.8619H29.386L30.7421 20.25H31.1193L29.7628 13.8619Z" fill="#FDDF12"/>
</g>
<g id="g418">
<path id="path420" d="M31.7727 20.25H32.1497L30.7934 13.8619H30.4167L31.7727 20.25Z" fill="#FDDF12"/>
</g>
<g id="g422">
<g id="g424">
<g id="g430">
<path id="path432" d="M45.9245 14.1674C45.9211 14.1246 45.898 14.1034 45.8542 14.1034C45.8206 14.1034 45.7866 14.121 45.7866 14.158C45.7866 14.2037 45.8278 14.2091 45.864 14.2178C45.9286 14.2343 46.0235 14.2525 46.0235 14.3373C46.0235 14.4423 45.932 14.4785 45.8411 14.4785C45.7445 14.4785 45.676 14.4411 45.6788 14.3344H45.7714C45.768 14.3812 45.7951 14.413 45.8424 14.413C45.8787 14.413 45.9269 14.4019 45.9269 14.3568C45.9269 14.3068 45.8665 14.3032 45.83 14.294C45.771 14.2794 45.6899 14.2525 45.6899 14.1774C45.6899 14.0808 45.7791 14.0378 45.8659 14.0378C45.948 14.0378 46.0119 14.0823 46.0119 14.1674H45.9245Z" fill="#FDDF12"/>
</g>
</g>
</g>
<g id="g434">
<path id="path436" d="M46.3581 14.4697H46.2824L46.1706 14.1066L46.1693 14.1077V14.4697H46.0842V14.0467H46.2332L46.3217 14.3544H46.3228L46.419 14.0467H46.5625V14.4697H46.4776V14.1077L46.4767 14.1066L46.3581 14.4697Z" fill="#FDDF12"/>
</g>
</g>
</g>
</g>
<defs>
<clipPath id="clip0_15_317">
<rect width="50" height="32" fill="white"/>
</clipPath>
</defs>
</svg>
